<?xml version="1.0" encoding="utf-8"?>
<!-- Generator: Adobe Illustrator 25.0.0, SVG Export Plug-In . SVG Version: 6.00 Build 0)  -->
<svg width="70px" height="70px" viewBox="0 0 70 70" version="1.1" xmlns="http://www.w3.org/2000/svg" xmlns:xlink="http://www.w3.org/1999/xlink">
<style type="text/css">
	.st0{fill-rule:evenodd;clip-rule:evenodd;fill-opacity:0;}
	.st1{fill:#FFFFFF;}
</style>
<g id="New-Design">
	<g id="Portfolio" transform="translate(-574.000000, -1389.000000)">
		<g id="icon-illustrator" transform="translate(574.000000, 1389.000000)">
			<path id="Rectangle-Copy-2" class="st0" d="M35,0L35,0c19.3,0,35,15.7,35,35l0,0c0,19.3-15.7,35-35,35l0,0C15.7,70,0,54.3,0,35
				l0,0C0,15.7,15.7,0,35,0z"/>
			<g>
				<polygon class="st1" points="27.7,20.7 29.1,20.7 29.1,22.3 30.7,22.3 30.7,17.6 29.1,17.6 29.1,19.2 27.7,19.2 27.7,17.6 
					26.1,17.6 26.1,22.3 27.7,22.3 				"/>
				<polygon class="st1" points="33.2,22.3 34.8,22.3 34.8,19.2 36.2,19.2 36.2,17.6 31.8,17.6 31.8,19.2 33.2,19.2 				"/>
				<polygon class="st1" points="38.6,20 39.6,21.7 39.7,21.7 40.7,20 40.7,22.3 42.3,22.3 42.3,17.6 40.7,17.6 39.7,19.3 
					38.7,17.6 37,17.6 37,22.3 38.6,22.3 				"/>
				<polygon class="st1" points="47,20.8 44.8,20.8 44.8,17.6 43.2,17.6 43.2,22.3 47,22.3 				"/>
				<path class="st1" d="M23.7,24.7L26,50.3l10.5,2.3L47,50.3l2.3-25.6H23.7z M44.1,32.8h-7.6h-4.7l0.6,2.3h4.1h7l-1.2,10.5
					l-5.8,2.3l-5.8-2.3l-0.9-4.7h3.3l0.6,2.3l2.9,1.2l2.9-1.2l0.6-4.7h-3.6h-7l-1.2-9.3h8.2h8.2L44.1,32.8z"/>
			</g>
		</g>
	</g>
</g>
</svg>
