<?xml version="1.0" encoding="utf-8"?>
<!-- Generator: Adobe Illustrator 25.0.0, SVG Export Plug-In . SVG Version: 6.00 Build 0)  -->
<svg width="70px" height="70px" viewBox="0 0 70 70" version="1.1" xmlns="http://www.w3.org/2000/svg" xmlns:xlink="http://www.w3.org/1999/xlink">
<style type="text/css">
	.st0{fill-rule:evenodd;clip-rule:evenodd;fill-opacity:0;}
	.st1{fill:#FFFFFF;}
</style>
<g id="New-Design">
	<g id="Portfolio" transform="translate(-574.000000, -1389.000000)">
		<g id="icon-illustrator" transform="translate(574.000000, 1389.000000)">
			<path id="Rectangle-Copy-2" class="st0" d="M35,0L35,0c19.3,0,35,15.7,35,35l0,0c0,19.3-15.7,35-35,35l0,0C15.7,70,0,54.3,0,35
				l0,0C0,15.7,15.7,0,35,0z"/>
			<g id="Outlined_Mnemonics_Logos">
				<g id="Ps">
					<path class="st1" d="M18,47.4V22c0-0.2,0.1-0.3,0.2-0.3c0.4,0,0.8,0,1.4,0c0.6,0,1.2,0,1.9,0c0.7,0,1.4,0,2.1,0
						c0.8,0,1.5,0,2.2,0c2,0,3.7,0.2,5.1,0.8c1.2,0.4,2.4,1.1,3.3,2c0.8,0.8,1.4,1.8,1.8,2.8c0.4,1,0.6,2.1,0.6,3.2
						c0,2.1-0.5,3.9-1.5,5.3c-1,1.4-2.4,2.4-4,3c-1.7,0.6-3.5,0.8-5.6,0.8c-0.6,0-1,0-1.2,0c-0.2,0-0.6,0-1.1,0v7.9
						c0,0.2-0.1,0.3-0.3,0.3c0,0,0,0-0.1,0h-4.7C18.1,47.7,18,47.6,18,47.4z M23.4,26.5v8.3c0.3,0,0.7,0,1,0h1.3
						c1,0,1.9-0.1,2.8-0.4c0.8-0.2,1.5-0.7,2-1.3c0.5-0.6,0.8-1.5,0.8-2.5c0-0.8-0.2-1.5-0.6-2.2c-0.4-0.6-1-1.1-1.7-1.4
						c-0.9-0.4-1.9-0.5-2.9-0.5c-0.6,0-1.2,0-1.7,0C23.9,26.4,23.5,26.4,23.4,26.5L23.4,26.5z"/>
					<path class="st1" d="M52,33.2c-0.7-0.4-1.5-0.7-2.4-0.8c-0.9-0.2-1.8-0.3-2.8-0.3c-0.5,0-1,0-1.5,0.2c-0.3,0.1-0.6,0.2-0.8,0.5
						c-0.1,0.2-0.2,0.4-0.2,0.7s0.1,0.4,0.2,0.6c0.2,0.3,0.5,0.5,0.8,0.7c0.6,0.3,1.2,0.6,1.8,0.8c1.3,0.4,2.6,1.1,3.8,1.8
						c0.8,0.5,1.5,1.2,1.9,2c0.4,0.8,0.6,1.7,0.6,2.5c0,1.2-0.3,2.3-1,3.3c-0.7,1-1.7,1.8-2.8,2.2c-1.2,0.5-2.7,0.8-4.5,0.8
						c-1.1,0-2.2-0.1-3.4-0.3c-0.9-0.1-1.7-0.4-2.5-0.8c-0.2-0.1-0.3-0.3-0.3-0.5v-4.3c0-0.1,0-0.2,0.1-0.2c0.1,0,0.1,0,0.2,0
						c1,0.6,2,1,3.1,1.2c0.9,0.2,1.9,0.4,2.9,0.4c0.9,0,1.6-0.1,2-0.3c0.4-0.2,0.7-0.6,0.7-1c0-0.3-0.2-0.7-0.6-1
						c-0.4-0.3-1.2-0.7-2.4-1.2c-1.3-0.4-2.4-1-3.5-1.8c-0.8-0.5-1.4-1.3-1.9-2.1c-0.4-0.8-0.6-1.7-0.6-2.5c0-1.1,0.3-2.1,0.8-3
						c0.6-1,1.5-1.8,2.6-2.3c1.2-0.6,2.6-0.9,4.4-0.9c1,0,2,0.1,3.1,0.2c0.7,0.1,1.5,0.3,2.1,0.6c0.1,0,0.2,0.1,0.2,0.2
						c0,0.1,0,0.2,0,0.3v4c0,0.1,0,0.2-0.1,0.2C52.3,33.3,52.1,33.3,52,33.2z"/>
				</g>
			</g>
		</g>
	</g>
</g>
</svg>
