<?xml version="1.0" encoding="utf-8"?>
<!-- Generator: Adobe Illustrator 25.0.0, SVG Export Plug-In . SVG Version: 6.00 Build 0)  -->
<svg width="70px" height="70px" viewBox="0 0 70 70" version="1.1" xmlns="http://www.w3.org/2000/svg" xmlns:xlink="http://www.w3.org/1999/xlink">
<style type="text/css">
	.st0{fill-rule:evenodd;clip-rule:evenodd;fill-opacity:0;}
	.st1{fill:#FFFFFF;}
</style>
<g id="New-Design">
	<g id="Portfolio" transform="translate(-574.000000, -1389.000000)">
		<g id="icon-illustrator" transform="translate(574.000000, 1389.000000)">
			<path id="Rectangle-Copy-2" class="st0" d="M35,0L35,0c19.3,0,35,15.7,35,35l0,0c0,19.3-15.7,35-35,35l0,0C15.7,70,0,54.3,0,35
				l0,0C0,15.7,15.7,0,35,0z"/>
			<path class="st1" d="M52.5,36.5c-1.4,0-2.6,0.3-3.7,0.8c-0.4-0.7-0.8-1.4-0.8-1.9c-0.1-0.6-0.2-0.9-0.1-1.6
				c0.1-0.7,0.5-1.6,0.5-1.7s-0.1-0.4-0.9-0.4c-0.8,0-1.5,0.2-1.6,0.4c-0.1,0.2-0.2,0.7-0.3,1.2c-0.1,0.7-1.6,3.4-2.5,4.8
				c-0.3-0.5-0.5-1-0.6-1.4c-0.1-0.6-0.2-0.9-0.1-1.6c0.1-0.7,0.5-1.6,0.5-1.7s-0.1-0.4-0.9-0.4c-0.8,0-1.5,0.2-1.6,0.4
				s-0.2,0.7-0.3,1.2c-0.2,0.5-2.1,4.9-2.7,6c-0.3,0.6-0.5,1-0.7,1.4l0,0c0,0,0,0,0,0.1c-0.1,0.3-0.2,0.4-0.2,0.4s0,0,0,0
				c-0.1,0.2-0.2,0.4-0.3,0.4c0,0-0.1-0.5,0-1.3c0.3-1.5,1-3.9,1-4c0,0,0.1-0.5-0.5-0.7C36.3,36.7,36.1,37,36,37s-0.1,0.1-0.1,0.1
				s0.6-2.7-1.2-2.7c-1.2,0-2.8,1.3-3.6,2.4c-0.5,0.3-1.6,0.9-2.7,1.5c-0.4,0.2-0.9,0.5-1.3,0.7c0,0-0.1-0.1-0.1-0.1
				c-2.3-2.4-6.4-4.1-6.3-7.4c0.1-1.2,0.5-4.3,8-8c6.2-3.1,11.2-2.2,12-0.3c1.2,2.7-2.7,7.7-9.1,8.4c-2.5,0.3-3.7-0.7-4.1-1
				c-0.3-0.4-0.4-0.4-0.5-0.3c-0.2,0.1-0.1,0.4,0,0.6c0.2,0.5,1,1.4,2.3,1.8c1.2,0.4,4.1,0.6,7.5-0.7c3.9-1.5,6.9-5.7,6-9.2
				c-0.9-3.6-6.8-4.7-12.4-2.7c-3.3,1.2-6.9,3-9.5,5.5c-3.1,2.9-3.6,5.4-3.4,6.4c0.7,3.7,5.8,6.1,7.9,7.9c-0.1,0.1-0.2,0.1-0.3,0.2
				c-1,0.5-4.9,2.6-5.9,4.7c-1.1,2.5,0.2,4.2,1,4.4c2.6,0.7,5.3-0.6,6.8-2.8c1.5-2.2,1.3-5,0.6-6.3c0,0,0,0,0,0
				c0.3-0.2,0.5-0.3,0.8-0.5c0.5-0.3,1-0.6,1.5-0.8c-0.3,0.7-0.4,1.5-0.5,2.7c-0.1,1.4,0.5,3.2,1.2,3.9c0.3,0.3,0.7,0.3,1,0.3
				c0.9,0,1.3-0.7,1.7-1.6c0.5-1,1-2.3,1-2.3s-0.6,3.3,1,3.3c0.6,0,1.2-0.8,1.5-1.2c0,0,0,0,0,0s0,0,0-0.1c0.1-0.1,0.1-0.2,0.1-0.2
				s0,0,0,0c0.2-0.4,0.8-1.4,1.6-2.9c1-2,2-4.5,2-4.5s0.1,0.6,0.4,1.6c0.2,0.6,0.5,1.3,0.8,1.9c-0.2,0.3-0.4,0.5-0.4,0.5s0,0,0,0
				c-0.2,0.3-0.4,0.5-0.6,0.8c-0.8,1-1.8,2.1-1.9,2.4c-0.2,0.4-0.1,0.6,0.2,0.9c0.2,0.2,0.6,0.2,1,0.2c0.7-0.1,1.2-0.2,1.5-0.3
				c0.4-0.1,0.8-0.4,1.3-0.7c0.8-0.6,1.3-1.4,1.2-2.5c0-0.6-0.2-1.2-0.5-1.8c0.1-0.1,0.1-0.2,0.2-0.3c1.2-1.8,2.2-3.8,2.2-3.8
				s0.1,0.6,0.4,1.6c0.1,0.5,0.5,1.1,0.7,1.6c-1.2,1-1.9,2.1-2.2,2.8c-0.5,1.3-0.1,1.9,0.6,2.1c0.3,0.1,0.8-0.1,1.1-0.2
				c0.4-0.1,0.9-0.4,1.4-0.7c0.8-0.6,1.6-1.4,1.5-2.5c0-0.5-0.2-1-0.3-1.5c1-0.4,2.3-0.6,3.9-0.5c3.5,0.4,4.2,2.6,4.1,3.5
				s-0.9,1.4-1.1,1.6c-0.2,0.2-0.3,0.2-0.3,0.3c0,0.2,0.1,0.2,0.4,0.1c0.3-0.1,1.8-0.7,1.9-2.4C58.3,38.9,56.2,36.5,52.5,36.5z
				 M25.4,45.7c-1.2,1.3-2.8,1.8-3.5,1.3c-0.8-0.4-0.5-2.3,1-3.7c0.9-0.8,2-1.6,2.7-2c0.2-0.1,0.4-0.3,0.7-0.4c0.1,0,0.1,0,0.1,0
				l0,0c0.1,0,0.1-0.1,0.2-0.1C27.2,42.7,26.6,44.3,25.4,45.7z M33.9,39.9c-0.4,1-1.3,3.5-1.8,3.4c-0.4-0.1-0.7-2-0.1-3.9
				c0.3-1,1-2.1,1.4-2.5c0.6-0.7,1.3-0.9,1.5-0.7C35.2,36.5,34.2,39.3,33.9,39.9z M40.9,43.3c-0.2,0.1-0.3,0.1-0.4,0.1
				c-0.1,0,0.1-0.1,0.1-0.1s0.9-0.9,1.2-1.4c0.2-0.3,0.4-0.5,0.7-0.9c0,0,0,0.1,0,0.1C42.5,42.2,41.4,43,40.9,43.3z M46.3,42
				c-0.1-0.1-0.1-0.4,0.3-1.3c0.2-0.4,0.5-1,1.2-1.6c0.1,0.2,0.1,0.5,0.1,0.7C48,41.3,46.9,41.8,46.3,42z"/>
		</g>
	</g>
</g>
</svg>
