<?xml version="1.0" encoding="utf-8"?>
<!-- Generator: Adobe Illustrator 25.0.0, SVG Export Plug-In . SVG Version: 6.00 Build 0)  -->
<svg width="70px" height="70px" viewBox="0 0 70 70" version="1.1" xmlns="http://www.w3.org/2000/svg" xmlns:xlink="http://www.w3.org/1999/xlink">
<style type="text/css">
	.st0{fill-rule:evenodd;clip-rule:evenodd;fill-opacity:0;}
	.st1{fill:#FFFFFF;}
</style>
<g id="New-Design">
	<g id="Portfolio" transform="translate(-574.000000, -1389.000000)">
		<g id="icon-illustrator" transform="translate(574.000000, 1389.000000)">
			<path id="Rectangle-Copy-2" class="st0" d="M35,0L35,0c19.3,0,35,15.7,35,35l0,0c0,19.3-15.7,35-35,35l0,0C15.7,70,0,54.3,0,35
				l0,0C0,15.7,15.7,0,35,0z"/>
			<g id="Outlined_Mnemonics_Logos_1_">
				<g id="Xd">
					<path class="st1" d="M38.1,22.7l-7.3,12l7.7,12.7c0,0.1,0.1,0.2,0,0.3c0,0.1-0.1,0-0.3,0h-5.5c-0.4,0-0.7,0-0.8-0.3
						c-0.5-1-1-2-1.5-3c-0.5-1-1.1-2-1.6-3c-0.6-1-1.2-2.1-1.7-3.1h0c-0.5,1-1.1,2.1-1.6,3.1c-0.6,1-1.1,2.1-1.6,3.1
						c-0.6,1-1.1,2.1-1.7,3c-0.1,0.2-0.3,0.3-0.6,0.3h-5.3c-0.1,0-0.2,0-0.2-0.1c0-0.1,0-0.2,0-0.3l7.5-12.3l-7.3-12.4
						c-0.1-0.1-0.1-0.2,0-0.2c0-0.1,0.1-0.1,0.2-0.1H22c0.1,0,0.2,0,0.3,0c0.1,0,0.2,0.1,0.2,0.2c0.5,1,1,2.1,1.5,3.1
						c0.6,1,1.1,2.1,1.7,3.1c0.6,1,1.1,2,1.6,3.1h0c0.5-1.1,1-2.1,1.6-3.1s1.1-2,1.6-3c0.6-1,1.1-2.1,1.6-3c0-0.1,0.1-0.2,0.1-0.2
						c0.1,0,0.2-0.1,0.3,0h5.1c0.1,0,0.2,0,0.3,0.2C38.2,22.6,38.2,22.7,38.1,22.7L38.1,22.7z"/>
					<path class="st1" d="M49.3,48.3c-1.8,0-3.6-0.3-5.2-1.1c-1.5-0.7-2.8-1.9-3.7-3.3c-0.9-1.5-1.3-3.3-1.3-5.5
						c0-1.8,0.4-3.6,1.3-5.1c0.9-1.6,2.2-2.9,3.8-3.7c1.7-0.9,3.7-1.4,6.1-1.4c0.1,0,0.3,0,0.5,0c0.2,0,0.5,0,0.7,0v-7.6
						c0-0.2,0.1-0.3,0.2-0.3h4.9c0.1,0,0.2,0.1,0.2,0.2c0,0,0,0,0,0v23c0,0.4,0,0.9,0,1.5c0,0.5,0.1,1,0.1,1.4
						c0,0.2-0.1,0.3-0.2,0.4c-1.3,0.5-2.6,0.9-3.9,1.2C51.8,48.1,50.6,48.3,49.3,48.3z M51.7,43.4V32.8c-0.2,0-0.4-0.1-0.7-0.1
						c-0.3,0-0.5,0-0.8,0c-0.9,0-1.9,0.2-2.7,0.6c-0.8,0.4-1.5,1-2.1,1.8s-0.8,1.8-0.8,3.1c0,0.8,0.1,1.7,0.4,2.5
						c0.2,0.7,0.6,1.2,1.1,1.7c0.5,0.4,1,0.8,1.6,1c0.7,0.2,1.3,0.3,2,0.3c0.4,0,0.7,0,1,0C51.1,43.6,51.4,43.5,51.7,43.4z"/>
				</g>
			</g>
		</g>
	</g>
</g>
</svg>
