<?xml version="1.0" encoding="utf-8"?>
<!-- Generator: Adobe Illustrator 25.0.0, SVG Export Plug-In . SVG Version: 6.00 Build 0)  -->
<svg width="70px" height="70px" viewBox="0 0 70 70" version="1.1" xmlns="http://www.w3.org/2000/svg" xmlns:xlink="http://www.w3.org/1999/xlink">
<style type="text/css">
	.st0{fill-rule:evenodd;clip-rule:evenodd;fill-opacity:0;}
	.st1{fill:#FFFFFF;}
</style>
<g id="New-Design">
	<g id="Portfolio" transform="translate(-574.000000, -1389.000000)">
		<g id="icon-illustrator" transform="translate(574.000000, 1389.000000)">
			<path id="Rectangle-Copy-2" class="st0" d="M35,0L35,0c19.3,0,35,15.7,35,35l0,0c0,19.3-15.7,35-35,35l0,0C15.7,70,0,54.3,0,35
				l0,0C0,15.7,15.7,0,35,0z"/>
			<g transform="matrix(.945094 0 0 .945094 6.301403 4.347014)">
				<path class="st1" d="M18.8,18.6c-2.3,3.4-2.1,7.9-0.3,11.5l0.1,0.3l0.1,0.2c0,0,0,0.1,0.1,0.1c0,0.1,0.1,0.1,0.1,0.2l0.2,0.3
					l0.1,0.2l0.2,0.3l0.1,0.1c0.1,0.1,0.2,0.3,0.3,0.4c0,0,0,0,0,0c0,0,0,0,0,0.1c0.1,0.1,0.2,0.2,0.3,0.4l0.1,0.1l0.2,0.3l0.1,0.1
					c0.1,0.1,0.2,0.3,0.3,0.4l0,0c0,0,0,0,0,0c0.1,0.1,0.2,0.2,0.3,0.4l0.1,0.1l0.3,0.3l0.1,0.1c0.1,0.1,0.2,0.2,0.4,0.3l0.1,0.1
					l0.3,0.3l0.1,0.1l0.3,0.2l0.2,0.1l0.4,0.3c0,0,0,0,0,0c0.1,0.1,0.2,0.1,0.3,0.2l0.1,0.1l0.5,0.3l0.1,0.1l0.4,0.2
					c0.1,0,0.1,0.1,0.2,0.1l0.3,0.1l0.1,0l0.1,0.1l0.4,0.2l0.1,0c0.2,0.1,0.3,0.1,0.5,0.2l0.1,0l0.5,0.2l0.1,0
					c0.2,0.1,0.3,0.1,0.5,0.2l0.1,0c0.2,0.1,0.3,0.1,0.5,0.2C39.7,40.3,43,31.2,43,31.2c-2.8,3.7-7.7,4.6-12.3,3.6
					c-0.2,0-0.3-0.1-0.5-0.1l-0.1,0c-0.2-0.1-0.3-0.1-0.5-0.2l-0.1,0c-0.1-0.1-0.3-0.1-0.4-0.2l-0.1,0c-0.2-0.1-0.3-0.1-0.5-0.2
					l-0.1,0l-0.4-0.2l-0.1-0.1c-0.1-0.1-0.2-0.1-0.3-0.2l-0.2-0.1c-0.1-0.1-0.2-0.1-0.4-0.2l-0.1-0.1c-0.2-0.1-0.3-0.2-0.5-0.3
					c0,0-0.1-0.1-0.1-0.1l-0.3-0.2l-0.1-0.1l-0.3-0.2l-0.1-0.1L25,31.8l-0.1-0.1l-0.4-0.3c0,0,0,0,0,0c-0.1-0.1-0.3-0.2-0.4-0.4
					l-0.1-0.1l-0.3-0.3l-0.1-0.1c-0.1-0.1-0.2-0.2-0.3-0.4c0,0,0,0,0,0c-0.1-0.1-0.2-0.3-0.3-0.4l-0.1-0.1l-0.2-0.3l-0.1-0.1
					l-0.3-0.4c-2.6-3.6-3.5-8.5-1.4-12.6 M26.1,15.7c-1.7,2.5-1.6,5.8-0.3,8.4c0.2,0.4,0.5,0.9,0.8,1.3c0.3,0.4,0.5,0.8,0.9,1.1
					c0.1,0.1,0.3,0.3,0.4,0.4c0,0,0.1,0.1,0.1,0.1c0.1,0.1,0.3,0.2,0.4,0.4c0,0,0,0,0,0c0.1,0.1,0.3,0.3,0.5,0.4l0.1,0.1
					c0.2,0.1,0.3,0.2,0.5,0.4c0,0,0,0,0,0c0.1,0.1,0.1,0.1,0.2,0.1c0,0,0.1,0,0.1,0.1c0.1,0.1,0.2,0.1,0.4,0.2l0,0l0.3,0.2
					c0,0,0.1,0,0.1,0.1l0.2,0.1c0,0,0,0,0,0c0.1,0.1,0.3,0.1,0.5,0.2c0,0,0.1,0,0.1,0c0.1,0.1,0.2,0.1,0.4,0.2l0.2,0.1
					c0.1,0,0.2,0.1,0.3,0.1l0.2,0.1c0.2,0.1,0.3,0.1,0.5,0.1c8.8,1.5,10.8-5.4,10.8-5.4c-1.8,2.7-5.4,4-9.1,3
					c-0.2,0-0.3-0.1-0.5-0.1c-0.1,0-0.1,0-0.1,0c-0.1,0-0.2-0.1-0.3-0.1L33.4,27c-0.1,0-0.3-0.1-0.4-0.2c0,0-0.1,0-0.1,0
					c-0.2-0.1-0.3-0.1-0.5-0.2c-0.1,0-0.2-0.1-0.2-0.1l-0.1-0.1c-0.1-0.1-0.2-0.1-0.3-0.2l-0.1,0c-0.1-0.1-0.2-0.1-0.4-0.2
					c0,0-0.1,0-0.1-0.1l-0.2-0.2c-0.2-0.1-0.3-0.2-0.5-0.4l-0.1-0.1c-1.6-1.3-3-3.1-3.6-5.2c-0.7-2.1-0.5-4.5,0.6-6.5 M32.3,13.5
					c-1,1.5-1.1,3.4-0.4,5c0.7,1.8,2.2,3.1,4,3.8c0.1,0,0.1,0.1,0.2,0.1l0.1,0c0.1,0,0.2,0.1,0.3,0.1c4.8,1,6.2-2.5,6.5-3
					c-1.1,1.7-3.1,2.1-5.5,1.5c-0.2,0-0.4-0.1-0.6-0.2c-0.2-0.1-0.5-0.2-0.7-0.3c-0.4-0.2-0.8-0.5-1.2-0.7c-2.1-1.6-3.4-4.8-2.1-7.3
					"/>
				<g>
					<path class="st1" d="M21.6,45.4l-0.3,1.2L21.6,45.4L21.6,45.4z M23.3,47.9l-0.4,0L23.3,47.9z M23.2,49.6l-2.2,0L23.2,49.6z
						 M23.6,47.9l-0.4,0L23.6,47.9z M23.4,49.5l0.4-1.4L23.4,49.5z M31.3,42.8l-0.7,3.3L31.3,42.8z M29.5,42.8L29,45.3L29.5,42.8z"
						/>
					<path class="st1" d="M31.2,42.7h-1.5c-0.1,0-0.2,0.1-0.2,0.1l-1.1,4.9c0,0.1-0.1,0.1-0.2,0.1h-1.1c-1.1,0-0.9-0.7-0.7-1.7l0,0
						l0.1-0.7l0.1-0.3l0.5-2.4c0-0.1,0-0.1-0.1-0.1h-1.5c-0.1,0-0.2,0.1-0.2,0.1l-0.7,3.3c-0.4,1.7-0.3,3.4,1.8,3.5l0.1,0h3.3
						c0.1,0,0.2-0.1,0.2-0.1l1.4-6.6C31.3,42.8,31.3,42.7,31.2,42.7L31.2,42.7z M37.2,47.9c0.1,0,0.1,0.1,0.1,0.1l-0.1,0.7 M37,49.5
						l0.1-0.7L37,49.5z M36.8,49.7l-2.8,0L36.8,49.7z"/>
					<path class="st1" d="M33.2,47c0-0.1,0.1-0.2,0.2-0.2l-0.2,0C33.1,47.7,33.2,47,33.2,47z M34.2,49.7L34.2,49.7L34.2,49.7z
						 M37.2,47.9c0.1,0,0.1,0.1,0.1,0.1l-0.2,0.8 M34.9,49.7L34.9,49.7L34.9,49.7z M34.5,49.7L34.5,49.7L34.5,49.7z M34.4,49.7
						L34.4,49.7L34.4,49.7z M34.3,49.7L34.3,49.7L34.3,49.7z M34.5,49.7L34.5,49.7L34.5,49.7z"/>
					<path class="st1" d="M34.9,49.7l-0.4,0C34.6,49.7,34.9,49.7,34.9,49.7z M36.8,49.7l-1.9,0L36.8,49.7z M37,49.5l0.1-0.6L37,49.5
						L37,49.5z M34.4,49.7L34.4,49.7L34.4,49.7L34.4,49.7z M34.2,49.7h-0.1H34.2z M34.3,49.7L34.3,49.7L34.3,49.7z M12.3,47l0.2-1
						l-0.3,1.2l0,0.1L12.3,47L12.3,47z M15.1,42.7h-1.6c-0.1,0-0.2,0.1-0.2,0.1L13,44.2c0,0.1,0,0.1,0.1,0.1c0,0,0,0,0,0h1.7
						c0.1,0,0.2-0.1,0.2-0.1l0.3-1.4C15.2,42.7,15.2,42.7,15.1,42.7L15.1,42.7z M14.8,45l-0.5,2.2L14.8,45z M10,52.4l1.4,0
						C10.9,52.4,10.3,52.4,10,52.4L10,52.4z"/>
					<path class="st1" d="M12.8,45l-0.2,1L12.8,45z M14.6,44.8H13c-0.1,0-0.2,0.1-0.2,0.1L12.3,47l-0.1,0.3l-0.4,2.1
						c0,0.1,0,0.2-0.1,0.3c0,0-0.3,0.9-0.8,0.9l-0.5,0c-0.1,0-0.2,0.1-0.2,0.1l-0.3,1.4c0,0.1,0,0.1,0.1,0.1c0,0,0,0,0,0l1.4,0
						c1.3,0,2-0.7,2.4-2.8l1-4.6C14.8,44.9,14.7,44.8,14.6,44.8L14.6,44.8z M38.3,49.6c-0.1,0-0.1-0.1-0.1-0.1l1.3-5.9 M40,49.4
						l0.5-2.5L40,49.4z"/>
					<path class="st1" d="M38.1,49.5c0,0,0-0.1,0-0.2l0.6-2.8L38.1,49.5c0,0,0,0.1,0.1,0.1h0.2C38.3,49.6,38.2,49.6,38.1,49.5z
						 M39.9,49.6c0,0-0.2,0-0.2,0L39.9,49.6c0,0,0.1,0,0.1-0.1l0-0.1C40,49.4,39.9,49.5,39.9,49.6L39.9,49.6z M40.2,48.2l0.2-1.1
						L40.2,48.2z M45.2,44l0.1,0.3c0,0.1,0,0.1-0.1,0.1"/>
					<path class="st1" d="M40,49.3l0.2-1.1L40,49.3z M45.1,43.7l0.1,0.3L45.1,43.7z M40.5,47.1l0.1-0.3l0.2-1.1l-0.3,1.3L40.5,47.1
						L40.5,47.1z M39.4,43.5l-0.1,0.2l-0.6,2.8L39.4,43.5L39.4,43.5L39.4,43.5z"/>
					<path class="st1" d="M45.2,44.3L45.2,44l-0.1-0.4c-0.1-0.5-0.5-0.8-1.4-0.8l-4,0c-0.1,0-0.2,0.1-0.2,0.1l-0.1,0.3l-0.1,0.4
						l-1.2,5.7c0,0.1,0,0.2,0,0.2c0,0,0.2,0.1,0.3,0.1h1.3c0.1,0,0.2,0,0.2,0c0,0,0.1-0.2,0.1-0.3l0.5-2.4l0.5-2.4
						c0-0.1,0.1-0.1,0.2-0.1l3.9,0C45.2,44.4,45.3,44.3,45.2,44.3L45.2,44.3z M50.3,41.7l-0.3,0h-1.3c-0.1,0-0.2,0.1-0.2,0.1
						l-2.8,4.1c0,0.1-0.1,0.1-0.1,0L45.4,45c0-0.1-0.1-0.1-0.2-0.1h-1.8c-0.1,0-0.1,0.1-0.1,0.1l0.8,2.8c0,0.1,0,0.2,0,0.3l-0.4,1.4
						c0,0.1,0,0.1,0.1,0.1c0,0,0,0,0,0h1.8c0.1,0,0.2-0.1,0.2-0.1l0.4-1.4c0-0.1,0.1-0.2,0.1-0.3l4.5-6c0.1-0.1,0-0.1-0.1-0.1
						L50.3,41.7L50.3,41.7z M36.1,45.2c0,0.1-0.1,0.2-0.2,0.2h-2.3c-0.1,0-0.1-0.1-0.1-0.1l0,0l0,0c0.2-0.6,0.7-1,1.5-1
						C36,44.2,36.1,44.7,36.1,45.2L36.1,45.2z M35.4,42.6c-2.9,0-3.6,1.8-4,3.6c-0.4,1.8-0.4,3.5,2.7,3.5h0.5l0.4,0l1.9,0
						c0.1,0,0.2-0.1,0.2-0.1l0.3-1.4c0-0.1,0-0.1-0.1-0.1h-2.7c-1.1,0-1.4-0.3-1.3-1.1h4.3c0.1,0,0.1,0,0.2-0.1c0,0,0,0,0,0
						C38.3,44.2,38.2,42.6,35.4,42.6L35.4,42.6z M21.6,45.2l0,0.1c0,0-0.3,1.2-0.3,1.2l-0.3,1.2c0,0.1-0.1,0.1-0.2,0.1H19
						c-1.3,0-1.6-1-1.3-2.5c0.3-1.6,0.9-2.5,2.2-2.6C21.7,42.5,22,43.8,21.6,45.2L21.6,45.2z M22.8,47.7c0,0,0.8-2,1-3.1
						c0.3-1.5-0.5-3.8-3.5-3.8c-3,0-4.2,2.1-4.7,4.4c-0.5,2.3,0.2,4.4,3.1,4.4l4.5,0c0.1,0,0.2-0.1,0.2-0.1l0.4-1.4
						c0-0.1,0-0.1-0.1-0.1c0,0,0,0,0,0l-0.7,0C22.8,47.9,22.8,47.8,22.8,47.7C22.8,47.8,22.8,47.8,22.8,47.7L22.8,47.7z"/>
					<path class="st1" d="M37.4,46.4C37.4,46.5,37.4,46.5,37.4,46.4c-0.2,0.1-0.2,0.1-0.2,0S37.3,46.3,37.4,46.4
						C37.4,46.3,37.4,46.3,37.4,46.4z"/>
				</g>
			</g>
		</g>
	</g>
</g>
</svg>
