<?xml version="1.0" encoding="UTF-8"?>
<svg width="70px" height="70px" viewBox="0 0 70 70" version="1.1" xmlns="http://www.w3.org/2000/svg" xmlns:xlink="http://www.w3.org/1999/xlink">
    <title>icon-figma</title>
    <g id="New-Design" stroke="none" stroke-width="1" fill="none" fill-rule="evenodd">
        <g id="Portfolio" transform="translate(-413.000000, -1389.000000)" fill="#FFFFFF">
            <g id="icon-figma" transform="translate(413.000000, 1389.000000)">
                <rect id="Rectangle-Copy" opacity="0" x="0" y="0" width="70" height="70" rx="35"></rect>
                <g id="Group" transform="translate(22.000000, 16.000000)" fill-rule="nonzero">
                    <g id="figma">
                        <path d="M12.0448315,-3.51112514e-14 L12.0448315,14.219217 L19.3088687,14.219217 C23.235407,14.219217 26.4184849,11.0361391 26.4184849,7.10960078 C26.4184849,3.18307502 23.2354042,-3.51112514e-14 19.3088687,-3.51112514e-14 L12.0448315,-3.51112514e-14 Z M14.3735762,11.8903952 L14.3735762,2.32874464 L19.3088687,2.32874464 C21.9492323,2.32874464 24.089663,4.46924874 24.089663,7.10960078 C24.089663,9.74996634 21.9492342,11.8903952 19.3088687,11.8903952 L14.3735762,11.8903952 Z" id="Rectangle-55"></path>
                        <path d="M14.3736534,14.219217 L14.3736534,-3.51112514e-14 L7.10961622,-3.51112514e-14 C3.18308073,-3.51112514e-14 0,3.18307502 0,7.10960078 C0,11.0361391 3.18307787,14.219217 7.10961622,14.219217 L14.3736534,14.219217 Z M12.0447543,2.32874464 L12.0447543,11.8903952 L7.10961622,11.8903952 C4.46925066,11.8903952 2.32882185,9.74996634 2.32882185,7.10960078 L2.32946234,7.03054184 C2.37168046,4.42665425 4.49565622,2.32874464 7.10961622,2.32874464 L12.0447543,2.32874464 Z" id="Rectangle-55_2"></path>
                        <path d="M14.3736534,26.109782 L14.3736534,11.890565 L7.10961622,11.890565 C3.18307586,11.890565 0,15.0736295 0,19.0001658 C0,22.9267042 3.18307787,26.109782 7.10961622,26.109782 L14.3736534,26.109782 Z M12.0447543,14.2193097 L12.0447543,23.7809602 L7.10961622,23.7809602 C4.46925066,23.7809602 2.32882185,21.6405314 2.32882185,19.0001658 L2.32946233,18.9211066 C2.37168034,16.3172098 4.49565048,14.2193097 7.10961622,14.2193097 L12.0447543,14.2193097 Z" id="Rectangle-55_3"></path>
                        <path d="M14.3736534,30.8132115 L14.3736534,23.7808058 L7.10961622,23.7808058 C3.18307787,23.7808058 0,26.9638836 0,30.890422 C0,34.7684124 3.14778014,37.9361468 7.03077572,37.9990888 L7.13854246,38 C11.1222528,38 14.3736534,34.7773536 14.3736534,30.8132115 Z M7.10961622,26.1095658 L12.0448315,26.1095658 L12.0448315,30.8132115 C12.0448315,33.4865336 9.84068195,35.6712164 7.14797438,35.6712164 L7.05907985,35.6704581 C4.45171787,35.6281554 2.32882185,33.491802 2.32882185,30.890422 C2.32882185,28.2500564 4.46925066,26.1095658 7.10961622,26.1095658 Z" id="Rectangle-55_4"></path>
                        <path d="M19.3088687,11.890565 L19.1544477,11.890565 C15.2279074,11.890565 12.0448315,15.0736295 12.0448315,19.0001658 C12.0448315,22.9267042 15.2279094,26.109782 19.1544477,26.109782 L19.3088687,26.109782 C23.1916548,26.109782 26.3546709,22.9946677 26.4175354,19.1173574 L26.4184467,19.0095988 C26.4184467,15.0736295 23.235409,11.890565 19.3088687,11.890565 Z M19.1544477,14.2193869 L19.3088687,14.2193869 C21.9492381,14.2193869 24.089663,16.3598041 24.089663,19.0001658 L24.0889048,19.0890478 C24.046759,21.6861216 21.9197077,23.7809602 19.3088687,23.7809602 L19.1544477,23.7809602 C16.5140822,23.7809602 14.3736534,21.6405314 14.3736534,19.0001658 C14.3736534,16.3598041 16.5140783,14.2193869 19.1544477,14.2193869 Z" id="Rectangle-55_5"></path>
                    </g>
                </g>
            </g>
        </g>
    </g>
</svg>