<?xml version="1.0" encoding="UTF-8"?>
<svg width="70px" height="70px" viewBox="0 0 70 70" version="1.1" xmlns="http://www.w3.org/2000/svg" xmlns:xlink="http://www.w3.org/1999/xlink">
    <title>icon-sketch</title>
    <g id="New-Design" stroke="none" stroke-width="1" fill="none" fill-rule="evenodd">
        <g id="Portfolio" transform="translate(-259.000000, -1389.000000)" fill="#FFFFFF">
            <g id="icon-sketch" transform="translate(259.000000, 1389.000000)">
                <rect id="Rectangle" opacity="0" x="0" y="0" width="70" height="70" rx="35"></rect>
                <g id="Group" transform="translate(17.000000, 19.000000)" fill-rule="nonzero">
                    <g id="Sketch-Logo-Light">
                        <path d="M18.0068253,0.00475310519 L27.8490995,1.11484872 C28.0568296,1.13827839 28.2455086,1.24685286 28.3700929,1.41465216 L35.696002,11.2817274 C35.9053427,11.5636828 35.8921992,11.9527761 35.6643085,12.2199742 L18.2091995,32.6857995 C18.0741025,32.8441984 17.8361239,32.8631338 17.6776593,32.7280929 C17.662457,32.7151378 17.6483089,32.7009955 17.6353484,32.6857995 L0.180239478,12.2199742 C-0.0476513028,11.9527761 -0.0607946984,11.5636828 0.148545919,11.2817274 L7.47445505,1.41465216 C7.59903932,1.24685286 7.78771832,1.13827839 7.99544842,1.11484872 L17.8377226,0.00475310519 C17.8939119,-0.0015843684 17.950636,-0.0015843684 18.0068253,0.00475310519 Z M20.0499755,2.13352642 C19.9922987,2.07556202 19.9001662,2.07043118 19.836405,2.12163274 C19.773801,2.17190492 19.759037,2.25964157 19.7984346,2.32689555 L19.811885,2.3463993 L25.3621568,9.25242534 C25.4159423,9.319349 25.4452603,9.40262131 25.4452603,9.48846575 C25.4452603,9.68620791 25.2929105,9.84838174 25.0991392,9.8641047 L25.0682157,9.86535406 L10.7763323,9.86535406 C10.6904522,9.86535406 10.6071454,9.8360483 10.540194,9.78228505 C10.3868738,9.65916581 10.3552723,9.44072585 10.462099,9.28013351 L10.4823912,9.25242534 L16.032663,2.3463993 C16.0838857,2.28266452 16.0787528,2.19057019 16.0207644,2.13291735 C15.9638286,2.07631089 15.8749587,2.07139018 15.8124694,2.11799825 L15.7945724,2.13352642 L8.27557176,9.69001501 C8.21546028,9.75042624 8.13258403,9.78259406 8.04743891,9.77856298 C7.89082501,9.77114834 7.76777961,9.6456121 7.76041633,9.49219561 L7.76041143,9.46312534 L8.01975951,3.98966094 C8.02322095,3.91660812 7.97372864,3.85160884 7.90236419,3.83548353 C7.82789003,3.81865549 7.75383165,3.8600673 7.72785969,3.92963917 L7.72200448,3.9492889 L6.29732527,10.2491312 C6.24859025,10.4646342 6.08626905,10.6350951 5.87593954,10.6956228 L5.83595621,10.7056675 L2.3084603,11.4653282 C2.2390003,11.4802867 2.18940634,11.5416778 2.18940634,11.6127021 C2.18940634,11.6890237 2.24614483,11.7520987 2.31975908,11.7620812 L2.34022417,11.7634574 L5.85901144,11.7634574 C6.06362683,11.7634574 6.25328304,11.867026 6.36413268,12.0367759 L6.38523294,12.0715972 L14.8264034,27.1225354 C14.8844368,27.2260114 15.012599,27.2670716 15.1199959,27.2165958 C15.225525,27.166998 15.2748633,27.0463529 15.2377495,26.9385978 L15.2284622,26.9157354 L8.40436027,12.4081626 C8.37604133,12.3479583 8.36135845,12.2822505 8.36135845,12.2157235 C8.36135845,11.9768039 8.54669684,11.7811543 8.78149962,11.764593 L8.81381194,11.7634574 L27.030736,11.7634574 C27.0972907,11.7634574 27.1630257,11.7781342 27.2232549,11.8064415 C27.4395569,11.9081018 27.5378234,12.1590046 27.4529086,12.3784501 L27.4401877,12.4081626 L20.6160857,26.9157354 C20.565589,27.0230877 20.6066663,27.1511969 20.7101851,27.2092061 C20.8119035,27.2662067 20.9387919,27.2362043 21.0049327,27.1433793 L21.0181446,27.1225354 L29.459315,12.0715972 C29.5593734,11.8931893 29.7424948,11.7784702 29.9448318,11.7648273 L29.9855365,11.7634574 L33.5043238,11.7634574 C33.5753775,11.7634574 33.6367941,11.7138841 33.6517588,11.6444528 C33.6678396,11.5698431 33.6256636,11.496238 33.5558038,11.4709819 L33.5360877,11.4653282 L30.0085917,10.7056675 C29.7925174,10.6591351 29.6203528,10.4986136 29.5576756,10.2889943 L29.5472228,10.2491312 L28.1225436,3.9492889 C28.1064114,3.87795407 28.0413853,3.82848211 27.9683021,3.83194217 C27.8920344,3.8355529 27.8316882,3.89518851 27.8251955,3.96916218 L27.8247884,3.98966094 L28.0841365,9.46312534 C28.0881693,9.54823519 28.0559882,9.63107702 27.9955519,9.69116368 C27.884821,9.801254 27.7100428,9.80768258 27.5918291,9.71077441 L27.5689762,9.69001501 L20.0499755,2.13352642 Z" id="Logo"></path>
                    </g>
                </g>
            </g>
        </g>
    </g>
</svg>