<?xml version="1.0" encoding="UTF-8"?>
<svg width="70px" height="70px" viewBox="0 0 70 70" version="1.1" xmlns="http://www.w3.org/2000/svg" xmlns:xlink="http://www.w3.org/1999/xlink">
    <title>icon-illustrator</title>
    <g id="New-Design" stroke="none" stroke-width="1" fill="none" fill-rule="evenodd">
        <g id="Portfolio" transform="translate(-574.000000, -1389.000000)" fill="#FFFFFF">
            <g id="icon-illustrator" transform="translate(574.000000, 1389.000000)">
                <rect id="Rectangle-Copy-2" opacity="0" x="0" y="0" width="70" height="70" rx="35"></rect>
                <g id="Ai" transform="translate(17.984729, 20.091290)" fill-rule="nonzero">
                    <path d="M5.76703995,26.9087101 L7.6562427,21.1043833 L16.8412481,21.1043833 L18.7304509,26.9087101 L24.4974908,26.9087101 L15.7226413,1.45418895 L8.78727855,1.45418895 L0,26.9087101 L5.76703995,26.9087101 Z M9.02342889,16.903393 L12.1555282,7.27094477 L12.3543916,7.27094477 L15.4864909,16.903393 L9.02342889,16.903393 Z" id="A"></path>
                    <path d="M27.4556096,26.9087101 L32.7503488,26.9087101 L32.7503488,7.81781925 L27.4556096,7.81781925 L27.4556096,26.9087101 Z M30.1154082,5.3568841 C31.6938868,5.3568841 32.9864992,4.15127445 32.9864992,2.67222757 C32.9864992,1.20560965 31.6938868,0 30.1154082,0 C28.5493585,0 27.2567461,1.20560965 27.2567461,2.67222757 C27.2567461,4.15127445 28.5493585,5.3568841 30.1154082,5.3568841 Z" id="i"></path>
                </g>
            </g>
        </g>
    </g>
</svg>