<svg width="30" height="30" viewBox="0 0 30 30" fill="none" xmlns="http://www.w3.org/2000/svg">
<path d="M29.5 15C29.5 23.0081 23.0081 29.5 15 29.5C6.99187 29.5 0.5 23.0081 0.5 15C0.5 6.99187 6.99187 0.5 15 0.5C23.0081 0.5 29.5 6.99187 29.5 15Z" stroke="#F2F2F2"/>
<path d="M17.1647 10.4461H18.4096V8.27791C18.1948 8.24836 17.4562 8.18188 16.5959 8.18188C14.801 8.18188 13.5715 9.31086 13.5715 11.3859V13.2955H11.5908V15.7194H13.5715V21.8182H15.9999V15.72H17.9005L18.2022 13.2961H15.9993V11.6262C15.9999 10.9256 16.1885 10.4461 17.1647 10.4461Z" fill="#F2F2F2"/>
</svg>
