<?xml version="1.0" encoding="UTF-8" standalone="no"?>
<svg
   width="169"
   height="51"
   viewBox="0 0 169 51"
   fill="none"
   version="1.1"
   id="svg221"
   sodipodi:docname="google-play-icon.svg"
   inkscape:version="1.1.2 (b8e25be8, 2022-02-05)"
   xmlns:inkscape="http://www.inkscape.org/namespaces/inkscape"
   xmlns:sodipodi="http://sodipodi.sourceforge.net/DTD/sodipodi-0.dtd"
   xmlns="http://www.w3.org/2000/svg"
   xmlns:svg="http://www.w3.org/2000/svg">
  <sodipodi:namedview
     id="namedview223"
     pagecolor="#ffffff"
     bordercolor="#666666"
     borderopacity="1.0"
     inkscape:pageshadow="2"
     inkscape:pageopacity="0.0"
     inkscape:pagecheckerboard="0"
     showgrid="false"
     width="150px"
     inkscape:zoom="5.8769231"
     inkscape:cx="84.397906"
     inkscape:cy="24.587696"
     inkscape:window-width="1920"
     inkscape:window-height="1027"
     inkscape:window-x="0"
     inkscape:window-y="25"
     inkscape:window-maximized="1"
     inkscape:current-layer="svg221" />
  <path
     d="M 162.6421,50.674083 H 6.3920943 c -3.5,0 -6.25000002,-2.75 -6.25000002,-6.25 V 6.9240838 c 0,-3.5 2.75000002,-6.25000003 6.25000002,-6.25000003 H 162.6421 c 3.5,0 6.25,2.75000003 6.25,6.25000003 V 44.424083 c 0,3.375 -2.75,6.25 -6.25,6.25 z"
     fill="#000000"
     id="path145" />
  <path
     d="m 162.6421,1.6740838 c 2.875,0 5.25,2.375 5.25,5.25 V 44.424083 c 0,2.875 -2.375,5.25 -5.25,5.25 H 6.3920943 c -2.875,0 -5.25,-2.375 -5.25,-5.25 V 6.9240838 c 0,-2.875 2.375,-5.25 5.25,-5.25 z m 0,-1.00000003 H 6.3920943 c -3.5,0 -6.25000002,2.75000003 -6.25000002,6.25000003 V 44.424083 c 0,3.5 2.75000002,6.25 6.25000002,6.25 H 162.6421 c 3.5,0 6.25,-2.75 6.25,-6.25 V 6.9240838 c 0,-3.375 -2.75,-6.25000003 -6.25,-6.25000003 z"
     fill="#a6a6a6"
     id="path147" />
  <path
     d="m 59.392094,13.424083 c 0,1 -0.25,1.875 -0.875,2.5 -0.75,0.75 -1.625,1.125 -2.75,1.125 -1.125,0 -2,-0.375 -2.75,-1.125 -0.75,-0.75 -1.125,-1.625 -1.125,-2.75 0,-1.125 0.375,-2 1.125,-2.75 0.75,-0.7499992 1.625,-1.1249992 2.75,-1.1249992 0.5,0 1,0.125 1.5,0.375 0.5,0.2499996 0.875,0.4999992 1.125,0.8749992 l -0.625,0.625 c -0.5,-0.625 -1.125,-0.875 -2,-0.875 -0.75,0 -1.5,0.25 -2,0.875 -0.625,0.5 -0.875,1.25 -0.875,2.125 0,0.875 0.25,1.625 0.875,2.125 0.625,0.5 1.25,0.875 2,0.875 0.875,0 1.5,-0.25 2.125,-0.875 0.375,-0.375 0.625,-0.875 0.625,-1.5 h -2.75 v -0.875 h 3.625 c 0,0 0,0.25 0,0.375 z"
     fill="#ffffff"
     stroke="#ffffff"
     stroke-width="0.25"
     stroke-miterlimit="10"
     id="path149" />
  <path
     d="m 65.142094,10.299083 h -3.375 v 2.375 h 3.125 v 0.875 h -3.125 v 2.375 h 3.375 v 1 h -4.375 V 9.4240838 h 4.375 z"
     fill="#ffffff"
     stroke="#ffffff"
     stroke-width="0.25"
     stroke-miterlimit="10"
     id="path151" />
  <path
     d="m 69.267094,16.924083 h -1 v -6.625 h -2.125 V 9.4240838 h 5.25 v 0.8749992 h -2.125 z"
     fill="#ffffff"
     stroke="#ffffff"
     stroke-width="0.25"
     stroke-miterlimit="10"
     id="path153" />
  <path
     d="M 75.017094,16.924083 V 9.4240838 h 1 v 7.4999992 z"
     fill="#ffffff"
     stroke="#ffffff"
     stroke-width="0.25"
     stroke-miterlimit="10"
     id="path155" />
  <path
     d="m 80.267094,16.924083 h -1 v -6.625 h -2.125 V 9.4240838 h 5.125 v 0.8749992 h -2.125 v 6.625 z"
     fill="#ffffff"
     stroke="#ffffff"
     stroke-width="0.25"
     stroke-miterlimit="10"
     id="path157" />
  <path
     d="m 92.142094,15.924083 c -0.75,0.75 -1.625,1.125 -2.75,1.125 -1.125,0 -2,-0.375 -2.75,-1.125 -0.75,-0.75 -1.125,-1.625 -1.125,-2.75 0,-1.125 0.375,-2 1.125,-2.75 0.75,-0.7499992 1.625,-1.1249992 2.75,-1.1249992 1.125,0 2,0.375 2.75,1.1249992 0.75,0.75 1.125,1.625 1.125,2.75 0,1.125 -0.375,2 -1.125,2.75 z m -4.75,-0.625 c 0.5,0.5 1.25,0.875 2,0.875 0.75,0 1.5,-0.25 2,-0.875 0.5,-0.5 0.875,-1.25 0.875,-2.125 0,-0.875 -0.25,-1.625 -0.875,-2.125 -0.5,-0.5 -1.25,-0.875 -2,-0.875 -0.75,0 -1.5,0.25 -2,0.875 -0.5,0.5 -0.875,1.25 -0.875,2.125 0,0.875 0.25,1.625 0.875,2.125 z"
     fill="#ffffff"
     stroke="#ffffff"
     stroke-width="0.25"
     stroke-miterlimit="10"
     id="path159" />
  <path
     d="M 94.642094,16.924083 V 9.4240838 h 1.125 l 3.625003,5.8749992 v -1.5 -4.3749992 h 1.000003 v 7.4999992 h -1.000003 l -3.875003,-6.125 v 1.5 4.625 z"
     fill="#ffffff"
     stroke="#ffffff"
     stroke-width="0.25"
     stroke-miterlimit="10"
     id="path161" />
  <path
     d="m 85.267094,27.924083 c -3,0 -5.375,2.25 -5.375,5.375 0,3 2.375,5.375 5.375,5.375 3,0 5.375,-2.25 5.375,-5.375 0,-3.25 -2.375,-5.375 -5.375,-5.375 z m 0,8.5 c -1.625,0 -3,-1.375 -3,-3.25 0,-1.875 1.375,-3.25 3,-3.25 1.625,0 3,1.25 3,3.25 0,1.875 -1.375,3.25 -3,3.25 z m -11.625,-8.5 c -3,0 -5.375,2.25 -5.375,5.375 0,3 2.375,5.375 5.375,5.375 3,0 5.375,-2.25 5.375,-5.375 0,-3.25 -2.375,-5.375 -5.375,-5.375 z m 0,8.5 c -1.625,0 -3,-1.375 -3,-3.25 0,-1.875 1.375,-3.25 3,-3.25 1.625,0 3,1.25 3,3.25 0,1.875 -1.375,3.25 -3,3.25 z m -13.875,-6.875 v 2.25 h 5.375 c -0.125,1.25 -0.625,2.25 -1.25,2.875 -0.75,0.75 -2,1.625 -4.125,1.625 -3.375,0 -5.875,-2.625 -5.875,-6 0,-3.375 2.625,-6 5.875,-6 1.75,0 3.125,0.75 4.125,1.625 l 1.625,-1.625 c -1.375,-1.25 -3.125,-2.25 -5.625,-2.25 -4.5,0 -8.375,3.75 -8.375,8.25 0,4.5 3.875,8.25 8.375,8.25 2.5,0 4.25,-0.75 5.75,-2.375 1.5,-1.5 2,-3.625 2,-5.25 0,-0.5 0,-1 -0.125,-1.375 z m 56.750006,1.75 c -0.5,-1.25 -1.75,-3.375 -4.5,-3.375 -2.75,0 -5,2.125 -5,5.375 0,3 2.25,5.375 5.25,5.375 2.375,0 3.875,-1.5 4.375,-2.375 l -1.75,-1.25 c -0.625,0.875 -1.375,1.5 -2.625,1.5 -1.25,0 -2,-0.5 -2.625,-1.625 l 7.125,-3 z m -7.25,1.75 c 0,-2 1.625,-3.125 2.75,-3.125 0.875,0 1.75,0.5 2,1.125 z m -5.875,5.125 h 2.375 v -15.625 h -2.375 z m -3.750003,-9.125 c -0.625003,-0.625 -1.625003,-1.25 -2.875003,-1.25 -2.625,0 -5.125,2.375 -5.125,5.375 0,3 2.375,5.25 5.125,5.25 1.25,0 2.25,-0.625 2.750003,-1.25 h 0.125 v 0.75 c 0,2 -1.125003,3.125 -2.875003,3.125 -1.375,0 -2.375,-1 -2.625,-1.875 l -2,0.875 c 0.625,1.375 2.125,3.125 4.75,3.125 2.750003,0 5.000006,-1.625 5.000006,-5.5 v -9.5 h -2.250003 z m -2.750003,7.375 c -1.625,0 -3,-1.375 -3,-3.25 0,-1.875 1.375,-3.25 3,-3.25 1.625,0 2.875003,1.375 2.875003,3.25 0,1.875 -1.250003,3.25 -2.875003,3.25 z m 30.500006,-13.875 h -5.625 v 15.625 h 2.375 v -5.875 h 3.25 c 2.625,0 5.125,-1.875 5.125,-4.875 0,-3 -2.5,-4.875 -5.125,-4.875 z m 0.125,7.5 h -3.375 v -5.375 h 3.375 c 1.75,0 2.75,1.5 2.75,2.625 -0.125,1.375 -1.125,2.75 -2.75,2.75 z m 14.375,-2.25 c -1.75,0 -3.5,0.75 -4.125,2.375 l 2.125,0.875 c 0.5,-0.875 1.25,-1.125 2.125,-1.125 1.25,0 2.375,0.75 2.5,2 v 0.125 c -0.375,-0.25 -1.375,-0.625 -2.375,-0.625 -2.25,0 -4.5,1.25 -4.5,3.5 0,2.125 1.875,3.5 3.875,3.5 1.625,0 2.375,-0.75 3,-1.5 h 0.125 v 1.25 h 2.25 v -6 c -0.25,-2.75 -2.375,-4.375 -5,-4.375 z m -0.25,8.625 c -0.75,0 -1.875,-0.375 -1.875,-1.375 0,-1.25 1.375,-1.625 2.5,-1.625 1,0 1.5,0.25 2.125,0.5 -0.25,1.5 -1.5,2.5 -2.75,2.5 z m 13.125,-8.25 -2.625,6.75 h -0.125 l -2.75,-6.75 h -2.5 l 4.125,9.5 -2.375,5.25 h 2.375 l 6.375,-14.75 z m -21,10 h 2.375 v -15.625 h -2.375 z"
     fill="#ffffff"
     id="path163" />
  <path
     d="m 13.142094,10.049083 c -0.375,0.375 -0.625,1 -0.625,1.75 v 27.625 c 0,0.75 0.25,1.375 0.625,1.75 l 0.125,0.125 15.5,-15.5 v -0.125 -0.125 z"
     fill="url(#paint0_linear_643_3453)"
     id="path165"
     style="fill:url(#paint0_linear_643_3453)" />
  <path
     d="m 33.892094,31.049083 -5.125,-5.125 v -0.25 -0.125 l 5.125,-5.125 0.125,0.125 6.125,3.5 c 1.75,1 1.75,2.625 0,3.625 z"
     fill="url(#paint1_linear_643_3453)"
     id="path167"
     style="fill:url(#paint1_linear_643_3453)" />
  <path
     d="m 34.017094,30.924083 -5.25,-5.25 -15.625,15.625 c 0.625,0.625 1.5,0.625 2.625,0.125 z"
     fill="url(#paint2_linear_643_3453)"
     id="path169"
     style="fill:url(#paint2_linear_643_3453)" />
  <path
     d="m 34.017094,20.424083 -18.25,-10.375 c -1.125,-0.6249992 -2,-0.4999992 -2.625,0.125 l 15.625,15.5 z"
     fill="url(#paint3_linear_643_3453)"
     id="path171"
     style="fill:url(#paint3_linear_643_3453)" />
  <path
     opacity="0.2"
     d="m 33.892094,30.799083 -18.125,10.25 c -1,0.625 -1.875,0.5 -2.5,0 l -0.125,0.125 0.125,0.125 c 0.625,0.5 1.5,0.625 2.5,0 z"
     fill="#000000"
     id="path173" />
  <path
     opacity="0.12"
     d="m 13.142094,41.049083 c -0.375,-0.375 -0.5,-1 -0.5,-1.75 v 0.125 c 0,0.75 0.25,1.375 0.625,1.75 v -0.125 z"
     fill="#000000"
     id="path175" />
  <path
     opacity="0.12"
     d="m 40.142094,27.299083 -6.25,3.5 0.125,0.125 6.125,-3.5 c 0.875,-0.5 1.25,-1.125 1.25,-1.75 0,0.625 -0.5,1.125 -1.25,1.625 z"
     fill="#000000"
     id="path177" />
  <path
     opacity="0.25"
     d="m 15.767094,10.174083 24.375,13.875 c 0.75,0.5 1.25,1 1.25,1.625 0,-0.625 -0.375,-1.25 -1.25,-1.75 l -24.375,-13.875 c -1.75,-0.9999992 -3.125,-0.1249996 -3.125,1.875 v 0.125 c 0,-2 1.375,-2.8749992 3.125,-1.875 z"
     fill="#ffffff"
     id="path179" />
  <defs
     id="defs219">
    <linearGradient
       id="paint0_linear_643_3453"
       x1="40.6647"
       y1="23.3871"
       x2="19.686701"
       y2="44.365101"
       gradientUnits="userSpaceOnUse"
       gradientTransform="translate(-13.272906,-11.825917)">
      <stop
         stop-color="#00A0FF"
         id="stop181" />
      <stop
         offset="0.00657445"
         stop-color="#00A1FF"
         id="stop183" />
      <stop
         offset="0.2601"
         stop-color="#00BEFF"
         id="stop185" />
      <stop
         offset="0.5122"
         stop-color="#00D2FF"
         id="stop187" />
      <stop
         offset="0.7604"
         stop-color="#00DFFF"
         id="stop189" />
      <stop
         offset="1"
         stop-color="#00E3FF"
         id="stop191" />
    </linearGradient>
    <linearGradient
       id="paint1_linear_643_3453"
       x1="55.708"
       y1="37.501701"
       x2="25.461901"
       y2="37.501701"
       gradientUnits="userSpaceOnUse"
       gradientTransform="translate(-13.272906,-11.825917)">
      <stop
         stop-color="#FFE000"
         id="stop194" />
      <stop
         offset="0.4087"
         stop-color="#FFBD00"
         id="stop196" />
      <stop
         offset="0.7754"
         stop-color="#FFA500"
         id="stop198" />
      <stop
         offset="1"
         stop-color="#FF9C00"
         id="stop200" />
    </linearGradient>
    <linearGradient
       id="paint2_linear_643_3453"
       x1="44.448799"
       y1="40.370098"
       x2="16.0009"
       y2="68.818001"
       gradientUnits="userSpaceOnUse"
       gradientTransform="translate(-13.272906,-11.825917)">
      <stop
         stop-color="#FF3A44"
         id="stop203" />
      <stop
         offset="1"
         stop-color="#C31162"
         id="stop205" />
    </linearGradient>
    <linearGradient
       id="paint3_linear_643_3453"
       x1="22.536699"
       y1="12.7203"
       x2="35.239899"
       y2="25.423401"
       gradientUnits="userSpaceOnUse"
       gradientTransform="translate(-13.272906,-11.825917)">
      <stop
         stop-color="#32A071"
         id="stop208" />
      <stop
         offset="0.0685"
         stop-color="#2DA771"
         id="stop210" />
      <stop
         offset="0.4762"
         stop-color="#15CF74"
         id="stop212" />
      <stop
         offset="0.8009"
         stop-color="#06E775"
         id="stop214" />
      <stop
         offset="1"
         stop-color="#00F076"
         id="stop216" />
    </linearGradient>
  </defs>
</svg>
