<?xml version="1.0" encoding="utf-8"?>
<!-- Generator: Adobe Illustrator 25.2.3, SVG Export Plug-In . SVG Version: 6.00 Build 0)  -->
<svg version="1.1" id="Layer_1" xmlns="http://www.w3.org/2000/svg" xmlns:xlink="http://www.w3.org/1999/xlink" x="0px" y="0px"
	 viewBox="0 0 25 25" style="enable-background:new 0 0 25 25;" xml:space="preserve">
<style type="text/css">
	.st0{fill:#323638;}
	.st1{fill:#010101;}
</style>
<g>
	<g>
		<path class="st0" d="M10.64,21.69c-0.33,0-0.65-0.12-0.91-0.37c-0.49-0.49-0.51-1.26-0.07-1.77c0.02-0.04,0.04-0.07,0.07-0.1
			c0.52-0.5,1.34-0.49,1.84,0.03c0.24,0.25,0.37,0.58,0.37,0.93c-0.01,0.35-0.15,0.67-0.4,0.92C11.29,21.57,10.97,21.69,10.64,21.69
			z M10.28,19.92c-0.01,0.02-0.03,0.04-0.05,0.06c-0.23,0.23-0.23,0.61,0,0.84c0.23,0.22,0.59,0.22,0.82,0
			c0.11-0.11,0.18-0.26,0.18-0.42s-0.06-0.31-0.17-0.42c-0.11-0.11-0.26-0.18-0.42-0.18C10.51,19.8,10.39,19.83,10.28,19.92z"/>
	</g>
	<g>
		<path class="st0" d="M14.36,21.68c-0.35,0-0.67-0.14-0.92-0.38c-0.51-0.51-0.51-1.33,0-1.84c0,0,0,0,0,0
			c0.51-0.51,1.33-0.51,1.84,0c0.25,0.25,0.38,0.57,0.38,0.92c0,0.35-0.14,0.67-0.38,0.92C15.03,21.54,14.71,21.68,14.36,21.68
			C14.36,21.68,14.36,21.68,14.36,21.68z M14.36,19.78c-0.15,0-0.3,0.06-0.42,0.17c-0.11,0.11-0.17,0.26-0.17,0.42
			c0,0.16,0.06,0.31,0.17,0.42c0.11,0.11,0.26,0.17,0.42,0.17l0,0c0.16,0,0.31-0.06,0.42-0.17c0.11-0.11,0.17-0.26,0.17-0.42
			s-0.06-0.31-0.17-0.42C14.66,19.84,14.51,19.78,14.36,19.78z"/>
	</g>
	<g>
		<path class="st0" d="M12.49,23.81c-0.33,0-0.66-0.12-0.92-0.38c-0.51-0.51-0.51-1.33-0.01-1.84c0.01-0.01,0.01-0.01,0.02-0.02
			c0.24-0.24,0.57-0.37,0.91-0.37c0,0,0,0,0.01,0c0.35,0,0.67,0.14,0.92,0.38c0.5,0.51,0.5,1.34-0.01,1.84
			C13.16,23.69,12.82,23.81,12.49,23.81z M12.06,22.1c-0.22,0.23-0.22,0.6,0.01,0.83c0.23,0.23,0.6,0.23,0.84,0
			c0.23-0.23,0.23-0.61,0-0.84c-0.11-0.11-0.26-0.17-0.42-0.17c0,0,0,0,0,0c-0.16,0-0.31,0.06-0.42,0.17
			C12.07,22.09,12.07,22.1,12.06,22.1z M11.82,21.84L11.82,21.84L11.82,21.84z"/>
	</g>
	<g>
		<path class="st0" d="M12.49,19.51c-0.33,0-0.66-0.12-0.92-0.38c-0.51-0.51-0.51-1.33-0.01-1.84c0.01-0.01,0.01-0.01,0.02-0.02
			c0.25-0.24,0.54-0.36,0.91-0.37c0.35,0,0.67,0.14,0.92,0.38c0.5,0.51,0.5,1.34-0.01,1.84C13.16,19.39,12.82,19.51,12.49,19.51z
			 M12.06,17.8c-0.22,0.23-0.22,0.6,0.01,0.83c0.23,0.23,0.6,0.23,0.84,0c0.23-0.23,0.23-0.61,0-0.84
			c-0.11-0.11-0.26-0.17-0.42-0.17c0,0,0,0,0,0c-0.16,0-0.31,0.06-0.42,0.17C12.07,17.79,12.07,17.8,12.06,17.8z M11.82,17.54
			L11.82,17.54L11.82,17.54z"/>
	</g>
	<g>
		<path class="st0" d="M8.77,19.51c-0.33,0-0.66-0.13-0.92-0.38c-0.51-0.51-0.51-1.34,0-1.85c0,0,0,0,0,0
			c0.25-0.24,0.57-0.38,0.92-0.38c0,0,0,0,0.01,0c0.35,0,0.67,0.14,0.92,0.38c0.51,0.51,0.5,1.34-0.01,1.84
			C9.44,19.39,9.1,19.51,8.77,19.51z M8.35,17.79c-0.23,0.23-0.23,0.61,0,0.84c0.23,0.23,0.6,0.23,0.83,0
			c0.23-0.23,0.23-0.61,0-0.84c-0.11-0.11-0.26-0.17-0.42-0.17c0,0,0,0,0,0C8.62,17.62,8.47,17.68,8.35,17.79L8.35,17.79z"/>
	</g>
	<g>
		<path class="st0" d="M16.19,19.51c-0.33,0-0.66-0.12-0.92-0.38c-0.51-0.51-0.51-1.33-0.01-1.84c0,0,0.01-0.01,0.01-0.01
			c0.25-0.25,0.57-0.4,0.92-0.38c0.35,0,0.67,0.14,0.92,0.38c0.5,0.51,0.5,1.34-0.01,1.84C16.86,19.39,16.52,19.51,16.19,19.51z
			 M15.77,17.79L15.77,17.79c-0.23,0.23-0.23,0.61,0,0.84c0.23,0.23,0.61,0.23,0.84,0c0.23-0.23,0.23-0.61,0-0.84
			c-0.11-0.11-0.26-0.17-0.42-0.18c0,0,0,0,0,0C16.03,17.62,15.88,17.68,15.77,17.79z"/>
	</g>
	<path class="st0" d="M20.24,8.58h-3.24c0.08-0.16,0.16-0.31,0.26-0.45c0.94-1.38,0.59-3.26-0.79-4.2c-0.14-0.1-0.29-0.18-0.45-0.25
		c-0.38-0.17-0.79-0.25-1.2-0.25c-0.59,0-1.17,0.18-1.66,0.5l0,0c-0.01-0.17-0.04-0.34-0.08-0.5c-0.34-1.34-1.56-2.28-2.94-2.28
		c-0.25,0-0.51,0.03-0.75,0.1c-1.46,0.37-2.31,1.71-2.22,3.5c0,0.01,0,0.02,0,0.04c0.07,0.81,0.27,1.61,0.6,2.36
		c0.2,0.55,0.53,1.04,0.96,1.43H4.76C4.09,8.56,3.54,9.1,3.53,9.77v0.88c-0.01,0.5,0.35,0.93,0.84,1.01
		c0.17,1.42,0.41,2.85,0.42,2.93c0.06,0.38,0.23,0.73,0.5,1.01c0.36,0.31,0.8,0.53,1.26,0.61l0.11,0.03l1.16,0.27l1.1,0.27
		c1.17,0.1,2.35,0.13,3.53,0.1c1.18,0.03,2.35,0,3.53-0.1h0.03c0.33-0.09,0.71-0.18,1.07-0.26l1.13-0.26l0.14-0.04
		c0.46-0.09,0.9-0.3,1.25-0.6c0.28-0.27,0.47-0.62,0.53-1.01c0-0.09,0.26-1.51,0.42-2.94c0.49-0.08,0.85-0.51,0.84-1.01V9.78
		C21.41,9.13,20.89,8.61,20.24,8.58z M14.83,4.44c0.27,0,0.53,0.06,0.78,0.18c1.02,0.46,1.47,1.65,1.01,2.66c0,0,0,0.01-0.01,0.01
		c-0.05,0.1-0.1,0.2-0.17,0.29c-0.14,0.2-0.26,0.42-0.36,0.64c-0.1,0.22-0.19,0.46-0.25,0.7c-0.03,0.11-0.07,0.21-0.11,0.31
		l-0.08,0.13h-3.53c-0.06-0.1-0.1-0.19-0.14-0.3c-0.04-0.12-0.07-0.25-0.09-0.37c1.13-0.57,1.72-1.85,1.43-3.08
		c-0.03-0.12-0.07-0.23-0.12-0.34C13.6,4.77,14.19,4.47,14.83,4.44z M8.61,2.95C8.67,2.86,8.75,2.78,8.83,2.7
		c0.13-0.13,0.28-0.24,0.44-0.33c0.12-0.06,0.25-0.1,0.38-0.14c0.16-0.04,0.33-0.07,0.5-0.07c0.8,0,1.52,0.46,1.84,1.19
		c0.05,0.1,0.09,0.21,0.12,0.32c0.03,0.11,0.05,0.22,0.06,0.33c0,0.12,0.03,0.24,0.05,0.37c0.02,0.13,0.05,0.24,0.08,0.36
		c0.06,0.24,0.14,0.47,0.25,0.7c0.04,0.1,0.08,0.21,0.11,0.31c0.22,0.89-0.2,1.82-1.01,2.26c-0.02,0.02-0.04,0.03-0.07,0.04
		c-0.12,0.06-0.25,0.11-0.38,0.15h-0.04c-0.16,0.04-0.33,0.06-0.5,0.06c-0.37,0-0.72-0.1-1.04-0.28C9.5,7.92,9.4,7.84,9.3,7.76
		C9.03,7.47,8.81,7.13,8.67,6.75C8.6,6.59,8.53,6.43,8.48,6.25C8.31,5.75,8.2,5.23,8.15,4.7C8.11,4.08,8.27,3.47,8.61,2.95z
		 M19.19,14.41c-0.02,0.17-0.1,0.33-0.22,0.45c-0.22,0.19-0.49,0.31-0.78,0.36l-1.3,0.3c-0.37,0.09-0.76,0.18-1.09,0.26
		c-0.23,0.05-1.77,0.08-3.32,0.08s-3.09-0.03-3.32-0.08l-1.08-0.27l-1.29-0.3c-0.29-0.05-0.56-0.17-0.79-0.36
		c-0.12-0.12-0.2-0.28-0.23-0.45c0,0-0.33-1.92-0.5-3.5h14.4c-0.13,1.59-0.48,3.5-0.48,3.5L19.19,14.41z M20.2,10.41H4.79V9.84
		h15.41L20.2,10.41z"/>
	<path class="st1" d="M14.76,5.85c0.04-0.01,0.08,0,0.09,0.04c0.01,0.02,0.01,0.05-0.01,0.07c-0.23,0.28-0.35,0.64-0.33,1
		c0,0.33,0.04,0.67,0,1.01c-0.02,0.3-0.13,0.58-0.31,0.81c-0.02,0.03-0.06,0.04-0.1,0.02c-0.03-0.02-0.04-0.06-0.02-0.1
		c0.18-0.5,0.23-1.04,0.17-1.56c-0.01-0.22-0.01-0.44,0.03-0.66C14.32,6.19,14.5,5.96,14.76,5.85z"/>
	<path class="st1" d="M14.76,5.85c0.04-0.01,0.08,0,0.09,0.04c0.01,0.02,0.01,0.05-0.01,0.07c-0.23,0.28-0.35,0.64-0.33,1
		c0,0.33,0.04,0.67,0,1.01c-0.02,0.3-0.13,0.58-0.31,0.81c-0.02,0.03-0.06,0.04-0.1,0.02c-0.03-0.02-0.04-0.06-0.02-0.1
		c0.18-0.5,0.23-1.04,0.17-1.56c-0.01-0.22-0.01-0.44,0.03-0.66C14.32,6.19,14.5,5.96,14.76,5.85z"/>
	<path class="st0" d="M14.3,6.48c-0.03,0.22-0.04,0.44-0.03,0.66c0.07,0.53,0.01,1.06-0.17,1.56c-0.02,0.03-0.01,0.08,0.02,0.1
		s0.08,0.01,0.1-0.02c0.19-0.23,0.3-0.51,0.31-0.81c0.03-0.33,0-0.67,0-1.01c-0.03-0.36,0.08-0.72,0.31-1.01
		c0.03-0.03,0.02-0.07-0.01-0.1c-0.02-0.02-0.05-0.02-0.07-0.01C14.52,5.97,14.34,6.2,14.3,6.48z"/>
	<path class="st1" d="M9.79,3.75c0.02-0.03,0.06-0.04,0.1-0.02c0.02,0.01,0.03,0.03,0.03,0.05c0,0.37,0.14,0.74,0.4,1.01
		c0.21,0.26,0.45,0.5,0.65,0.77c0.17,0.24,0.26,0.53,0.26,0.82c0,0.04-0.03,0.07-0.07,0.07c-0.04,0-0.07-0.03-0.07-0.07
		c-0.18-0.5-0.47-0.95-0.86-1.32c-0.15-0.16-0.29-0.34-0.4-0.53C9.68,4.29,9.67,4,9.79,3.75z"/>
	<path class="st1" d="M9.79,3.75c0.02-0.03,0.06-0.04,0.1-0.02c0.02,0.01,0.03,0.03,0.03,0.05c0,0.37,0.14,0.74,0.4,1.01
		c0.21,0.26,0.45,0.5,0.65,0.77c0.17,0.24,0.26,0.53,0.26,0.82c0,0.04-0.03,0.07-0.07,0.07c-0.04,0-0.07-0.03-0.07-0.07
		c-0.18-0.5-0.47-0.95-0.86-1.32c-0.15-0.16-0.29-0.34-0.4-0.53C9.68,4.29,9.67,4,9.79,3.75z"/>
	<path class="st0" d="M9.82,4.53c0.12,0.19,0.25,0.37,0.4,0.53c0.38,0.37,0.68,0.82,0.86,1.32c0,0.04,0.03,0.07,0.07,0.07
		c0.04,0,0.07-0.03,0.07-0.07c0.01-0.3-0.07-0.59-0.24-0.84c-0.19-0.28-0.44-0.5-0.65-0.77c-0.26-0.27-0.4-0.63-0.4-1.01
		c0-0.04-0.04-0.07-0.08-0.06c-0.02,0-0.04,0.01-0.05,0.03C9.68,3.98,9.69,4.28,9.82,4.53z"/>
</g>
</svg>
