<?xml version="1.0" encoding="utf-8"?>
<!-- Generator: Adobe Illustrator 26.1.0, SVG Export Plug-In . SVG Version: 6.00 Build 0)  -->
<svg version="1.1" id="Layer_1" xmlns="http://www.w3.org/2000/svg" xmlns:xlink="http://www.w3.org/1999/xlink" x="0px" y="0px"
	 viewBox="0 0 25 25" style="enable-background:new 0 0 25 25;" xml:space="preserve">
<style type="text/css">
	.st0{fill:none;stroke:#000000;stroke-width:1.7954;stroke-miterlimit:10;}
</style>
<g>
	<path d="M12.21,19.65c-2.8-0.1-5.18-1.38-6.79-4.01c-0.32-0.53-0.1-1.12,0.46-1.29c0.38-0.11,0.75,0.04,0.98,0.43
		c0.5,0.82,1.13,1.51,1.92,2.06c2.97,2.07,7.25,1.21,9.18-1.85c0.06-0.1,0.12-0.19,0.18-0.29c0.27-0.38,0.75-0.49,1.14-0.26
		c0.38,0.23,0.55,0.74,0.29,1.12c-0.36,0.55-0.73,1.1-1.18,1.58C16.79,18.82,14.79,19.62,12.21,19.65z"/>
	<path d="M6.3,9.3c0.01-0.94,0.76-1.68,1.7-1.67c0.91,0.01,1.67,0.76,1.67,1.68C9.66,10.23,8.9,11,7.97,11
		C7.04,10.99,6.29,10.24,6.3,9.3z"/>
	<path d="M18.66,9.31c0,0.94-0.75,1.69-1.68,1.69c-0.92,0-1.69-0.78-1.68-1.7c0.01-0.92,0.76-1.67,1.68-1.67
		C17.91,7.63,18.66,8.37,18.66,9.31z"/>
	<circle class="st0" cx="12.48" cy="12.53" r="11.52"/>
</g>
</svg>
