<?xml version="1.0" encoding="utf-8"?>
<!-- Generator: Adobe Illustrator 26.1.0, SVG Export Plug-In . SVG Version: 6.00 Build 0)  -->
<svg version="1.1" id="Tamp" xmlns="http://www.w3.org/2000/svg" xmlns:xlink="http://www.w3.org/1999/xlink" x="0px" y="0px"
	 viewBox="0 0 25 30" style="enable-background:new 0 0 25 30;" xml:space="preserve">
<g>
	<path d="M8.85,18.19c0-0.99,0.03-2.01-0.02-3.02c-0.01-0.2-0.26-0.43-0.46-0.57c-4.13-2.84-4.73-8.61-1.2-12.13
		c2.28-2.27,5.06-2.98,8.12-1.98c2.98,0.97,4.83,3.1,5.37,6.2c0.56,3.24-0.63,5.86-3.26,7.8c-0.44,0.32-0.63,0.62-0.6,1.15
		c0.05,0.74-0.01,1.49,0.03,2.24c0.01,0.16,0.19,0.41,0.34,0.46c2.42,0.87,3.62,2.55,3.63,5.12c0,0.39,0,0.79,0,1.18
		c-0.01,0.98-0.33,1.31-1.3,1.31c-4,0-8,0-12,0c-0.5,0-1,0.01-1.49,0c-0.74-0.02-1.12-0.38-1.13-1.11
		c-0.01-0.79-0.06-1.59,0.05-2.36c0.3-2.05,1.48-3.41,3.44-4.1c0.12-0.04,0.24-0.07,0.35-0.11C8.76,18.27,8.79,18.24,8.85,18.19z
		 M18.8,8.04c0-3.28-2.69-5.96-5.98-5.96c-3.28,0-5.97,2.69-5.96,5.98c0,3.28,2.7,5.97,5.98,5.96C16.12,14.01,18.81,11.32,18.8,8.04
		z M6.93,23.94c3.94,0,7.89,0,11.83,0c0.27-2.35-1-3.79-3.32-3.79c-1.76,0-3.52,0-5.29,0C7.9,20.16,6.6,21.68,6.93,23.94z
		 M14.81,16.05c-1.35,0-2.64,0-3.92,0c0,0.67,0,1.3,0,1.9c1.34,0,2.63,0,3.92,0C14.81,17.3,14.81,16.7,14.81,16.05z"/>
	<path d="M12.83,29.95c-2.26,0-4.52,0-6.78,0c-0.68,0-1.1-0.32-1.17-0.87c-0.08-0.62,0.39-1.11,1.11-1.12c1.45-0.01,2.9,0,4.35,0
		c3.07,0,6.14,0,9.21,0c0.74,0,1.16,0.3,1.23,0.87c0.09,0.64-0.4,1.12-1.17,1.12C17.35,29.95,15.09,29.95,12.83,29.95z"/>
</g>
</svg>
