<svg width="30" height="30" viewBox="0 0 30 30" fill="none" xmlns="http://www.w3.org/2000/svg">
<path d="M29.5 15C29.5 23.0081 23.0081 29.5 15 29.5C6.99187 29.5 0.5 23.0081 0.5 15C0.5 6.99187 6.99187 0.5 15 0.5C23.0081 0.5 29.5 6.99187 29.5 15Z" stroke="#F2F2F2"/>
<path d="M15 9.26175C16.869 9.26175 17.0907 9.26875 17.8292 9.30258C19.7262 9.38892 20.6122 10.289 20.6986 12.172C20.7324 12.9099 20.7388 13.1316 20.7388 15.0006C20.7388 16.8702 20.7318 17.0912 20.6986 17.8292C20.6117 19.7104 19.7279 20.6122 17.8292 20.6986C17.0907 20.7324 16.8702 20.7394 15 20.7394C13.131 20.7394 12.9093 20.7324 12.1714 20.6986C10.2697 20.6117 9.38833 19.7075 9.302 17.8286C9.26817 17.0907 9.26117 16.8696 9.26117 15C9.26117 13.131 9.26875 12.9099 9.302 12.1714C9.38892 10.289 10.2727 9.38833 12.1714 9.302C12.9099 9.26875 13.131 9.26175 15 9.26175V9.26175ZM15 8C13.0989 8 12.8609 8.00817 12.1142 8.042C9.57208 8.15867 8.15925 9.56917 8.04258 12.1137C8.00817 12.8609 8 13.0989 8 15C8 16.9011 8.00817 17.1397 8.042 17.8863C8.15867 20.4285 9.56917 21.8413 12.1137 21.958C12.8609 21.9918 13.0989 22 15 22C16.9011 22 17.1397 21.9918 17.8863 21.958C20.4262 21.8413 21.8425 20.4308 21.9574 17.8863C21.9918 17.1397 22 16.9011 22 15C22 13.0989 21.9918 12.8609 21.958 12.1142C21.8437 9.57442 20.4314 8.15925 17.8869 8.04258C17.1397 8.00817 16.9011 8 15 8V8ZM15 11.4055C13.0149 11.4055 11.4055 13.0149 11.4055 15C11.4055 16.9851 13.0149 18.5951 15 18.5951C16.9851 18.5951 18.5945 16.9857 18.5945 15C18.5945 13.0149 16.9851 11.4055 15 11.4055ZM15 17.3333C13.7114 17.3333 12.6667 16.2892 12.6667 15C12.6667 13.7114 13.7114 12.6667 15 12.6667C16.2886 12.6667 17.3333 13.7114 17.3333 15C17.3333 16.2892 16.2886 17.3333 15 17.3333ZM18.7368 10.4238C18.2725 10.4238 17.8962 10.8 17.8962 11.2637C17.8962 11.7275 18.2725 12.1037 18.7368 12.1037C19.2006 12.1037 19.5762 11.7275 19.5762 11.2637C19.5762 10.8 19.2006 10.4238 18.7368 10.4238Z" fill="#F2F2F2"/>
</svg>
