<svg width="30" height="30" viewBox="0 0 30 30" fill="none" xmlns="http://www.w3.org/2000/svg">
<path d="M29.5 15C29.5 23.0081 23.0081 29.5 15 29.5C6.99187 29.5 0.5 23.0081 0.5 15C0.5 6.99187 6.99187 0.5 15 0.5C23.0081 0.5 29.5 6.99187 29.5 15Z" stroke="#F2F2F2"/>
<path d="M10.7455 15.6509C10.7643 15.6041 10.9521 14.8825 10.9652 14.8336C10.672 14.3924 10.3463 12.9477 10.5962 11.7751C10.8657 10.0544 12.6891 9.2086 14.4106 9.2086V9.2054C16.566 9.20677 18.1794 10.406 18.1811 12.4713C18.1824 14.0879 17.2086 16.2247 15.5456 16.2247C15.5452 16.2247 15.5448 16.2247 15.5444 16.2247C14.9509 16.2247 14.1994 15.9556 14.0024 15.6912C13.775 15.3866 13.7191 15.0106 13.8393 14.609C14.1338 13.6691 14.5092 12.5432 14.5531 11.7924C14.5937 11.0839 14.091 10.623 13.439 10.623C12.9484 10.623 12.3112 10.9079 11.9936 11.7087C11.7313 12.3739 11.7369 13.0704 12.0108 13.8377C12.1175 14.1377 11.5374 16.0931 11.3516 16.7299C10.8898 18.3117 10.2576 20.313 10.3928 21.4276L10.5233 22.5L11.1785 21.6412C12.0854 20.4541 13.023 17.3835 13.2728 16.6363C14.0114 17.5928 15.5495 17.6202 15.7288 17.6202C17.9315 17.6202 20.4291 15.433 20.3583 12.3889C20.2962 9.71935 18.3424 7.5 14.832 7.5V7.50343C11.4928 7.50343 9.54387 9.28574 9.06677 11.5377C8.62983 13.6258 9.60155 15.215 10.7455 15.6509Z" fill="#F2F2F2"/>
</svg>
