<svg width="30" height="30" viewBox="0 0 30 30" fill="none" xmlns="http://www.w3.org/2000/svg">
<path d="M29.5 15C29.5 23.0081 23.0081 29.5 15 29.5C6.99187 29.5 0.5 23.0081 0.5 15C0.5 6.99187 6.99187 0.5 15 0.5C23.0081 0.5 29.5 6.99187 29.5 15Z" stroke="#F2F2F2"/>
<path d="M19.4404 10.1016C17.3386 9.96562 12.6562 9.96662 10.5575 10.1016C8.28451 10.2496 8.01785 11.5577 8 15C8.01785 18.4363 8.28346 19.7504 10.5585 19.8984C12.6572 20.0334 17.3396 20.0344 19.4415 19.8984C21.7144 19.7504 21.9822 18.4413 22 15C21.9811 11.5637 21.7155 10.2496 19.4404 10.1016ZM12.8997 17.2222V12.7778L17.916 14.996L12.8997 17.2222Z" fill="#F2F2F2"/>
</svg>
